<svg width="23" height="34" viewBox="0 0 23 34" fill="none" xmlns="http://www.w3.org/2000/svg">
<path d="M19.7866 9.0267C19.7866 8.83115 19.7133 8.66003 19.5666 8.51337C19.4199 8.3667 19.2488 8.29337 19.0533 8.29337H10.8399C10.6444 8.29337 10.4733 8.3667 10.3266 8.51337C10.1799 8.66003 10.1066 8.83115 10.1066 9.0267C10.1066 9.22226 10.1799 9.38115 10.3266 9.50337C10.4733 9.62559 10.6444 9.6867 10.8399 9.6867H17.3666L3.43326 23.62C3.28659 23.7667 3.21326 23.9378 3.21326 24.1334C3.21326 24.3289 3.28659 24.5 3.43326 24.6467C3.57992 24.7934 3.75103 24.8667 3.94659 24.8667C4.14215 24.8667 4.31326 24.7934 4.45992 24.6467L18.3933 10.7134V17.24C18.3933 17.4356 18.4544 17.6067 18.5766 17.7534C18.6988 17.9 18.8577 17.9734 19.0533 17.9734C19.2488 17.9734 19.4199 17.9 19.5666 17.7534C19.7133 17.6067 19.7866 17.4356 19.7866 17.24V9.0267Z" fill="white"/>
</svg>
