<svg width="105" height="105" viewBox="0 0 105 105" fill="none" xmlns="http://www.w3.org/2000/svg">
<rect x="1" y="1" width="103" height="103" rx="51.5" stroke="white" stroke-width="2"/>
<path d="M67.5667 41.4167C67.5667 41.0611 67.4334 40.75 67.1667 40.4833C66.9 40.2167 66.5889 40.0833 66.2334 40.0833H51.3C50.9445 40.0833 50.6334 40.2167 50.3667 40.4833C50.1 40.75 49.9667 41.0611 49.9667 41.4167C49.9667 41.7722 50.1 42.0611 50.3667 42.2833C50.6334 42.5056 50.9445 42.6167 51.3 42.6167H63.1667L37.8333 67.95C37.5667 68.2167 37.4333 68.5278 37.4333 68.8833C37.4333 69.2389 37.5667 69.55 37.8333 69.8167C38.1 70.0833 38.4111 70.2167 38.7667 70.2167C39.1222 70.2167 39.4333 70.0833 39.7 69.8167L65.0334 44.4833V56.35C65.0334 56.7056 65.1445 57.0167 65.3667 57.2833C65.5889 57.55 65.8778 57.6833 66.2334 57.6833C66.5889 57.6833 66.9 57.55 67.1667 57.2833C67.4334 57.0167 67.5667 56.7056 67.5667 56.35V41.4167Z" fill="white"/>
</svg>
