<svg width="41" height="41" viewBox="0 0 41 41" fill="none" xmlns="http://www.w3.org/2000/svg">
<path d="M40.5038 20.2586C40.5038 30.4901 32.9219 38.9487 23.0723 40.3213C22.1513 40.449 21.2091 40.5158 20.2526 40.5158C19.1486 40.5158 18.0645 40.4277 17.0087 40.2574C7.36485 38.7045 0 30.341 0 20.2586C0 9.07037 9.0677 0 20.2512 0C31.4347 0 40.5038 9.07037 40.5038 20.2586Z" fill="#1877F2"/>
<path d="M23.0723 16.2662V20.6793H28.5299L27.6657 26.624H23.0723V40.3204C22.1513 40.4482 21.2091 40.5149 20.2526 40.5149C19.1486 40.5149 18.0645 40.4269 17.0087 40.2566V26.624H11.9753V20.6793H17.0087V15.2797C17.0087 11.9297 19.7233 9.21289 23.0737 9.21289V9.21573C23.0836 9.21573 23.0921 9.21289 23.1021 9.21289H28.5313V14.3542H24.9837C23.9294 14.3542 23.0737 15.2101 23.0737 16.2648L23.0723 16.2662Z" fill="white"/>
</svg>
