<svg width="30" height="30" viewBox="0 0 30 30" fill="none" xmlns="http://www.w3.org/2000/svg">
<path d="M29.6667 6.99992V1.66659C29.6667 1.31296 29.5262 0.973824 29.2762 0.723775C29.0261 0.473727 28.687 0.333252 28.3334 0.333252H1.66671C1.31309 0.333252 0.973946 0.473727 0.723897 0.723775C0.473849 0.973824 0.333374 1.31296 0.333374 1.66659V6.99992H29.6667Z" fill="#006170"/>
<path d="M0.333374 9.6665V28.3332C0.333374 28.6868 0.473849 29.0259 0.723897 29.276C0.973946 29.526 1.31309 29.6665 1.66671 29.6665H8.33337V9.6665H0.333374Z" fill="#006170"/>
<path d="M11 29.6665H28.3333C28.687 29.6665 29.0261 29.526 29.2761 29.276C29.5262 29.0259 29.6667 28.6868 29.6667 28.3332V9.6665H11V29.6665Z" fill="#006170"/>
</svg>
