<svg width="30" height="30" viewBox="0 0 30 30" fill="none" xmlns="http://www.w3.org/2000/svg">
<path d="M5.66658 0.333252H1.66659C1.31296 0.333252 0.973824 0.473727 0.723775 0.723775C0.473727 0.973824 0.333252 1.31296 0.333252 1.66659V28.3333C0.333252 28.6869 0.473727 29.026 0.723775 29.2761C0.973824 29.5261 1.31296 29.6666 1.66659 29.6666H5.66658V0.333252Z" fill="#006170"/>
<path d="M8.33325 29.6666H21.6666V0.333252H8.33325V29.6666ZM14.9999 24.3333C14.6463 24.3333 14.3072 24.1928 14.0571 23.9427C13.8071 23.6927 13.6666 23.3535 13.6666 22.9999C13.6666 22.6463 13.8071 22.3072 14.0571 22.0571C14.3072 21.8071 14.6463 21.6666 14.9999 21.6666C15.3535 21.6666 15.6927 21.8071 15.9427 22.0571C16.1928 22.3072 16.3333 22.6463 16.3333 22.9999C16.3333 23.3535 16.1928 23.6927 15.9427 23.9427C15.6927 24.1928 15.3535 24.3333 14.9999 24.3333ZM14.9999 5.66658C15.3535 5.66658 15.6927 5.80706 15.9427 6.05711C16.1928 6.30716 16.3333 6.6463 16.3333 6.99992C16.3333 7.35354 16.1928 7.69268 15.9427 7.94273C15.6927 8.19278 15.3535 8.33325 14.9999 8.33325C14.6463 8.33325 14.3072 8.19278 14.0571 7.94273C13.8071 7.69268 13.6666 7.35354 13.6666 6.99992C13.6666 6.6463 13.8071 6.30716 14.0571 6.05711C14.3072 5.80706 14.6463 5.66658 14.9999 5.66658ZM14.9999 13.6666C15.3535 13.6666 15.6927 13.8071 15.9427 14.0571C16.1928 14.3072 16.3333 14.6463 16.3333 14.9999C16.3333 15.3535 16.1928 15.6927 15.9427 15.9427C15.6927 16.1928 15.3535 16.3333 14.9999 16.3333C14.6463 16.3333 14.3072 16.1928 14.0571 15.9427C13.8071 15.6927 13.6666 15.3535 13.6666 14.9999C13.6666 14.6463 13.8071 14.3072 14.0571 14.0571C14.3072 13.8071 14.6463 13.6666 14.9999 13.6666Z" fill="#006170"/>
<path d="M28.3333 0.333252H24.3333V29.6666H28.3333C28.6869 29.6666 29.026 29.5261 29.2761 29.2761C29.5261 29.026 29.6666 28.6869 29.6666 28.3333V1.66659C29.6666 1.31296 29.5261 0.973824 29.2761 0.723775C29.026 0.473727 28.6869 0.333252 28.3333 0.333252Z" fill="#006170"/>
</svg>
