<svg width="41" height="41" viewBox="0 0 41 41" fill="none" xmlns="http://www.w3.org/2000/svg">
<path d="M20.6198 0H20.5276C9.36822 0 0.321777 9.04911 0.321777 20.2117V20.304C0.321777 31.4666 9.36822 40.5158 20.5276 40.5158H20.6198C31.7792 40.5158 40.8256 31.4666 40.8256 20.304V20.2117C40.8256 9.04911 31.7792 0 20.6198 0Z" fill="url(#paint0_linear_13_44)"/>
<path d="M26.8409 8.24316H14.3078C10.8454 8.24316 8.02856 11.0608 8.02856 14.5243V25.9936C8.02856 29.457 10.8454 32.2747 14.3078 32.2747H26.8409C30.3033 32.2747 33.1201 29.457 33.1201 25.9936V14.5243C33.1201 11.0608 30.3033 8.24316 26.8409 8.24316ZM10.2437 14.5243C10.2437 12.283 12.0672 10.4589 14.3078 10.4589H26.8409C29.0815 10.4589 30.905 12.283 30.905 14.5243V25.9936C30.905 28.2349 29.0815 30.0589 26.8409 30.0589H14.3078C12.0672 30.0589 10.2437 28.2349 10.2437 25.9936V14.5243Z" fill="white"/>
<path d="M20.5744 26.1001C23.7943 26.1001 26.4152 23.4797 26.4152 20.2576C26.4152 17.0354 23.7957 14.415 20.5744 14.415C17.3532 14.415 14.7336 17.0354 14.7336 20.2576C14.7336 23.4797 17.3532 26.1001 20.5744 26.1001ZM20.5744 16.6322C22.5739 16.6322 24.2001 18.2589 24.2001 20.259C24.2001 22.259 22.5739 23.8857 20.5744 23.8857C18.575 23.8857 16.9488 22.259 16.9488 20.259C16.9488 18.2589 18.575 16.6322 20.5744 16.6322Z" fill="white"/>
<path d="M26.956 15.3583C27.8231 15.3583 28.5298 14.6529 28.5298 13.7841C28.5298 12.9154 27.8245 12.21 26.956 12.21C26.0876 12.21 25.3823 12.9154 25.3823 13.7841C25.3823 14.6529 26.0876 15.3583 26.956 15.3583Z" fill="white"/>
<defs>
<linearGradient id="paint0_linear_13_44" x1="6.2392" y1="34.5966" x2="34.9166" y2="5.92903" gradientUnits="userSpaceOnUse">
<stop stop-color="#FAAD4F"/>
<stop offset="0.35" stop-color="#DD2A7B"/>
<stop offset="0.62" stop-color="#9537B0"/>
<stop offset="1" stop-color="#515BD4"/>
</linearGradient>
</defs>
</svg>
