<svg width="41" height="41" viewBox="0 0 41 41" fill="none" xmlns="http://www.w3.org/2000/svg">
<path d="M20.7941 0H20.7019C9.54255 0 0.496094 9.04911 0.496094 20.2117V20.304C0.496094 31.4666 9.54255 40.5158 20.7019 40.5158H20.7941C31.9535 40.5158 40.9999 31.4666 40.9999 20.304V20.2117C40.9999 9.04911 31.9535 0 20.7941 0Z" fill="#007EBB"/>
<path d="M10.1556 13.4672C9.62203 12.9718 9.35669 12.3586 9.35669 11.6289C9.35669 10.8993 9.62345 10.2592 10.1556 9.76235C10.6892 9.26696 11.376 9.01855 12.2175 9.01855C13.059 9.01855 13.7188 9.26696 14.251 9.76235C14.7845 10.2577 15.0499 10.8809 15.0499 11.6289C15.0499 12.377 14.7831 12.9718 14.251 13.4672C13.7174 13.9625 13.0405 14.211 12.2175 14.211C11.3944 14.211 10.6892 13.9625 10.1556 13.4672ZM14.6015 16.3089V31.4972H9.80367V16.3089H14.6015Z" fill="#FEFFFC"/>
<path d="M30.5729 17.8098C31.6188 18.9454 32.141 20.5039 32.141 22.4884V31.2294H27.5844V23.1044C27.5844 22.1037 27.3248 21.3258 26.8068 20.7722C26.2888 20.2186 25.5907 19.9404 24.7165 19.9404C23.8424 19.9404 23.1442 20.2172 22.6263 20.7722C22.1083 21.3258 21.8486 22.1037 21.8486 23.1044V31.2294H17.2651V16.2668H21.8486V18.2513C22.3127 17.5898 22.9385 17.0674 23.7246 16.6827C24.5108 16.2981 25.3948 16.1064 26.3782 16.1064C28.1293 16.1064 29.5285 16.6742 30.5729 17.8098Z" fill="#FEFFFC"/>
</svg>
