<svg width="42" height="41" viewBox="0 0 42 41" fill="none" xmlns="http://www.w3.org/2000/svg">
<path d="M20.9418 0H20.8496C9.69024 0 0.643799 9.04911 0.643799 20.2117V20.304C0.643799 31.4666 9.69024 40.5158 20.8496 40.5158H20.9418C32.1012 40.5158 41.1476 31.4666 41.1476 20.304V20.2117C41.1476 9.04911 32.1012 0 20.9418 0Z" fill="#FF0000"/>
<path fill-rule="evenodd" clip-rule="evenodd" d="M19.0475 25.7974C19.0234 25.8811 19.0007 25.9521 18.9823 26.0231C17.9109 30.2219 17.7917 31.1545 16.6905 33.1048C16.1654 34.0317 15.5737 34.9104 14.9195 35.7507C14.8457 35.8458 14.7762 35.9679 14.6286 35.938C14.4668 35.904 14.4541 35.7578 14.437 35.6286C14.2611 34.3525 14.1632 33.0736 14.2057 31.7847C14.2611 30.1069 14.4683 29.5306 16.6309 20.4347C16.6621 20.2956 16.6266 20.1806 16.5812 20.0557C16.0633 18.6589 15.9611 17.2409 16.4138 15.8044C17.3929 12.7014 20.9093 12.4644 21.5238 15.0237C21.9026 16.6064 20.9008 18.6788 20.1317 21.742C19.4945 24.2686 22.4688 26.0657 25.0104 24.2204C27.3546 22.5199 28.2642 18.4432 28.0911 15.5531C27.7505 9.79153 21.4344 8.54666 17.4284 10.4019C12.8349 12.5268 11.7905 18.2217 13.8652 20.825C14.1277 21.1558 14.6229 21.3587 14.5364 21.6937C14.403 22.2147 14.2852 22.7399 14.1405 23.258C14.0326 23.6441 13.4182 23.7846 13.0279 23.6256C12.2631 23.3162 11.6259 22.8293 11.1094 22.1877C9.34835 20.006 8.84459 15.6908 11.1732 12.0371C13.7531 7.99023 18.5523 6.35217 22.9343 6.84898C28.1677 7.44373 31.4755 11.0208 32.0942 15.079C32.3766 16.9272 32.1737 21.4851 29.5797 24.7073C26.5954 28.4092 21.7579 28.6548 19.5257 26.3822C19.354 26.2076 19.2164 26.0046 19.0475 25.796V25.7974Z" fill="white"/>
</svg>
