<svg width="45" height="50" viewBox="0 0 45 50" fill="none" xmlns="http://www.w3.org/2000/svg">
<g clip-path="url(#clip0_3_215)">
<g clip-path="url(#clip1_3_215)">
<path d="M36.1761 0.00622559H16.8716C12.6243 0.00622559 9.18115 3.44935 9.18115 7.69666V33.1222C9.18115 37.3695 12.6243 40.8126 16.8716 40.8126H36.1761C40.4234 40.8126 43.8666 37.3695 43.8666 33.1222V7.69666C43.8666 3.44935 40.4234 0.00622559 36.1761 0.00622559Z" fill="#006170"/>
<path d="M31.2349 23.5128C30.3137 23.5128 29.0934 23.4925 27.5742 23.4925C23.8691 23.4925 20.8225 20.4258 20.8225 16.6859V10.1243C20.8225 9.60805 20.4104 9.18774 19.8993 9.18774H9.10722C4.07078 9.18774 0 13.3215 0 18.3876V40.372C0 45.6871 4.26472 49.9941 9.52743 49.9941H25.5984C30.6167 49.9941 34.6854 45.887 34.6854 40.8168V24.431C34.6854 23.9127 34.2753 23.4945 33.7622 23.4965C32.8996 23.5027 31.8652 23.5128 31.2349 23.5128Z" fill="#006170" fill-opacity="0.1"/>
<path d="M25.6756 10.3452C25.0655 9.71061 24.0005 10.1472 24.0005 11.0266V16.407C24.0005 18.6635 25.8592 20.5203 28.1157 20.5203C29.5379 20.5365 31.5129 20.5407 33.1901 20.5365C34.049 20.5345 34.4856 19.5082 33.8899 18.888C31.7374 16.6498 27.8832 12.6385 25.6756 10.3452Z" fill="#006170" fill-opacity="0.1"/>
<path d="M22.2763 35.4932C23.1149 35.4932 23.7963 36.1747 23.7963 37.0132C23.7963 37.8519 23.1149 38.5312 22.2763 38.5312H11.1688C10.3303 38.5312 9.65083 37.8519 9.65083 37.0132C9.65083 36.1747 10.3303 35.4932 11.1688 35.4932H22.2763ZM18.0751 25.3035C18.9137 25.3035 19.5951 25.9849 19.5951 26.8235C19.5951 27.662 18.9137 28.3415 18.0751 28.3415H11.1686C10.33 28.3415 9.65063 27.662 9.65063 26.8235C9.65063 25.9849 10.33 25.3035 11.1686 25.3035H18.0751Z" fill="#006170"/>
</g>
</g>
<defs>
<clipPath id="clip0_3_215">
<rect width="44.22" height="50" fill="white"/>
</clipPath>
<clipPath id="clip1_3_215">
<rect width="44.22" height="49.9878" fill="white" transform="translate(0 0.00610352)"/>
</clipPath>
</defs>
</svg>
