<svg width="50" height="50" viewBox="0 0 50 50" fill="none" xmlns="http://www.w3.org/2000/svg">
<g clip-path="url(#clip0_3_200)">
<g clip-path="url(#clip1_3_200)">
<path d="M0 31.9446C0 41.9165 8.08375 50.0001 18.0556 50.0001C28.0275 50.0001 36.1111 41.9165 36.1111 31.9446C36.1111 21.9726 28.0275 13.889 18.0556 13.889C8.08375 13.889 0 21.9726 0 31.9446Z" fill="#006170"/>
<path d="M17.4719 7.25813C17.1336 7.71096 17.4904 8.33346 18.0556 8.33346C31.0956 8.33346 41.6668 18.9045 41.6668 31.9445C41.6668 32.5098 42.2893 32.8665 42.742 32.5282C47.1479 29.2359 50.0001 23.9787 50.0001 18.0557C50.0001 8.08388 41.9165 0.00012207 31.9445 0.00012207C26.0215 0.00012207 20.7643 2.85229 17.4719 7.25813Z" fill="#006170" fill-opacity="0.1"/>
</g>
</g>
<defs>
<clipPath id="clip0_3_200">
<rect width="50" height="50" fill="white"/>
</clipPath>
<clipPath id="clip1_3_200">
<rect width="50" height="50" fill="white"/>
</clipPath>
</defs>
</svg>
