<svg width="39" height="39" viewBox="0 0 39 39" fill="none" xmlns="http://www.w3.org/2000/svg">
<g clip-path="url(#clip0_3_71)">
<g clip-path="url(#clip1_3_71)">
<path d="M0.5 24.5477C0.5 32.1264 6.64365 38.2699 14.2222 38.2699C21.8009 38.2699 27.9445 32.1264 27.9445 24.5477C27.9445 16.969 21.8009 10.8254 14.2222 10.8254C6.64365 10.8254 0.5 16.969 0.5 24.5477Z" fill="#006170" fill-opacity="0.1"/>
<path d="M13.7785 5.7861C13.5213 6.13026 13.7925 6.60336 14.2221 6.60336C24.1325 6.60336 32.1665 14.6374 32.1665 24.5478C32.1665 24.9774 32.6397 25.2485 32.9838 24.9913C36.3322 22.4892 38.4999 18.4938 38.4999 13.9923C38.4999 6.41367 32.3564 0.27002 24.7777 0.27002C20.2762 0.27002 16.2807 2.43767 13.7785 5.7861Z" fill="#196164"/>
</g>
</g>
<defs>
<clipPath id="clip0_3_71">
<rect width="38" height="38" fill="white" transform="translate(0.5 0.27002)"/>
</clipPath>
<clipPath id="clip1_3_71">
<rect width="38" height="38" fill="white" transform="translate(0.5 0.27002)"/>
</clipPath>
</defs>
</svg>
