<svg width="41" height="39" viewBox="0 0 41 39" fill="none" xmlns="http://www.w3.org/2000/svg">
<g clip-path="url(#clip0_3_62)">
<g clip-path="url(#clip1_3_62)">
<g clip-path="url(#clip2_3_62)">
<path d="M21.9132 1.47124L26.2567 10.1999C26.5767 10.8323 27.1875 11.2715 27.8919 11.3691L37.6483 12.79C38.2181 12.8701 38.7351 13.1706 39.0844 13.6293C39.4298 14.0821 39.5781 14.656 39.4942 15.2201C39.4259 15.6885 39.2054 16.1218 38.8678 16.4537L31.7983 23.3066C31.2813 23.7848 31.0471 24.4933 31.172 25.1862L32.9125 34.8205C33.0979 35.9838 32.3271 37.0807 31.172 37.3013C30.6959 37.3775 30.2081 37.2974 29.7787 37.0788L21.0761 32.5447C20.4303 32.2187 19.6673 32.2187 19.0214 32.5447L10.3187 37.0788C9.24941 37.6468 7.9245 37.2604 7.32936 36.2063C7.10886 35.7867 7.03081 35.3085 7.10301 34.842L8.84354 25.2057C8.96843 24.5147 8.73233 23.8023 8.21719 23.3241L1.14772 16.4751C0.306718 15.6631 0.281351 14.3261 1.09113 13.4849C1.10869 13.4673 1.1282 13.4477 1.14772 13.4283C1.48333 13.0867 1.92433 12.8701 2.40043 12.8135L12.1568 11.3905C12.8593 11.291 13.47 10.8557 13.7919 10.2194L17.9794 1.47124C18.3521 0.721733 19.1248 0.255241 19.9638 0.274759H20.2253C20.9532 0.362593 21.5873 0.81347 21.9132 1.47124Z" fill="#196164"/>
<path d="M19.993 32.3016C19.6151 32.3134 19.247 32.4149 18.9158 32.5964L10.2557 37.1203C9.19606 37.626 7.92801 37.2335 7.33392 36.2202C7.11381 35.8063 7.03395 35.3318 7.10797 34.8672L8.83765 25.2513C8.95453 24.5523 8.72078 23.8416 8.21239 23.3496L1.13976 16.5023C0.300236 15.6803 0.284653 14.3312 1.10664 13.4896C1.11833 13.4779 1.12807 13.4682 1.13976 13.4585C1.47479 13.1266 1.90721 12.9079 2.37275 12.8395L12.1373 11.4025C12.8444 11.3127 13.458 10.8714 13.7696 10.231L18.014 1.37273C18.4172 0.658134 19.1905 0.232498 20.0085 0.277404C19.993 0.857284 19.993 31.9072 19.993 32.3016Z" fill="#006170" fill-opacity="0.1"/>
</g>
</g>
</g>
<defs>
<clipPath id="clip0_3_62">
<rect width="39.94" height="38" fill="white" transform="translate(0.5 0.27002)"/>
</clipPath>
<clipPath id="clip1_3_62">
<rect width="39.94" height="38" fill="white" transform="translate(0.5 0.27002)"/>
</clipPath>
<clipPath id="clip2_3_62">
<rect width="39.94" height="37.9917" fill="white" transform="translate(0.5 0.27417)"/>
</clipPath>
</defs>
</svg>
