<svg width="42" height="41" viewBox="0 0 42 41" fill="none" xmlns="http://www.w3.org/2000/svg">
<path d="M41.4682 20.2586C41.4682 30.4901 33.8863 38.9487 24.0367 40.3213C23.1157 40.449 22.1735 40.5158 21.217 40.5158C20.113 40.5158 19.0288 40.4277 17.9731 40.2574C8.33066 38.7045 0.96582 30.341 0.96582 20.2586C0.96582 9.07037 10.0335 0 21.2184 0C32.4034 0 41.4711 9.07037 41.4711 20.2586H41.4682Z" fill="#1C1C1B"/>
<path d="M9.17904 8.93359L18.5192 21.4249L9.12085 31.5811H11.2367L19.4657 22.6896L26.1139 31.5811H33.3127L23.4475 18.3872L32.196 8.93359H30.0801L22.5024 17.1225L16.3793 8.93359H9.18044H9.17904ZM12.2896 10.4922H15.596L30.1994 30.0226H26.893L12.2896 10.4922Z" fill="white"/>
</svg>
