<svg width="41" height="41" viewBox="0 0 41 41" fill="none" xmlns="http://www.w3.org/2000/svg">
<path d="M40.6782 20.2004C40.6782 9.04402 31.6368 0 20.4838 0C9.33067 0 0.289307 9.04402 0.289307 20.2004C0.289307 31.3568 9.33067 40.4008 20.4838 40.4008C31.6368 40.4008 40.6782 31.3568 40.6782 20.2004Z" fill="#FF0209"/>
<path d="M29.0561 29.1471C28.4544 29.2124 27.8385 29.2237 27.2482 29.2223C22.6434 29.2181 18.0386 29.2138 13.4352 29.211C11.9864 29.211 10.4084 29.1641 9.28875 28.2429C8.02722 27.2024 7.7647 25.3983 7.66253 23.7659C7.52063 21.5288 7.50927 19.2846 7.62563 17.0462C7.68949 15.8169 7.80159 14.5578 8.3309 13.445C8.7112 12.6458 9.34551 11.9276 10.1572 11.55C11.1009 11.1114 12.0885 11.1894 13.1046 11.188C15.5368 11.1852 17.9691 11.1838 20.4013 11.1809C22.93 11.1781 25.4602 11.1767 27.9889 11.1738C29.1838 11.1738 30.4666 11.198 31.4415 11.8892C32.7002 12.7807 33.0422 14.4769 33.1997 16.0114C33.4906 18.8375 33.4948 21.6935 33.211 24.5196C33.0933 25.685 32.8974 26.9171 32.1297 27.8014C31.3691 28.6787 30.241 29.0165 29.0575 29.1457L29.0561 29.1471Z" fill="white"/>
<path d="M24.6015 20.1995L17.739 16.2363V24.1626L24.6015 20.1995Z" fill="#FF0209"/>
</svg>
